/* XPM */
static char *b6673b60517e4906a3c80aa2946ecab8[] = {
/* columns rows colors chars-per-pixel */
"64 64 256 2 ",
"   c black",
".  c #0000A8",
"X  c #00A800",
"o  c #00A8A8",
"O  c #A80000",
"+  c #A800A8",
"@  c #A85400",
"#  c gray66",
"$  c gray33",
"%  c #5454FC",
"&  c #54FC54",
"*  c #54FCFC",
"=  c #FC5454",
"-  c #FC54FC",
";  c #FCFC54",
":  c gray99",
">  c #ECECEC",
",  c gainsboro",
"<  c #D0D0D0",
"1  c #C0C0C0",
"2  c #B4B4B4",
"3  c gray66",
"4  c #989898",
"5  c gray55",
"6  c #7C7C7C",
"7  c gray44",
"8  c #646464",
"9  c gray33",
"0  c #484848",
"q  c gray22",
"w  c #2C2C2C",
"e  c #202020",
"r  c #FC0000",
"t  c #EC0000",
"y  c #E00000",
"u  c #D40000",
"i  c #C80000",
"p  c #BC0000",
"a  c #B00000",
"s  c #A40000",
"d  c #980000",
"f  c #880000",
"g  c #7C0000",
"h  c #700000",
"j  c #640000",
"k  c #580000",
"l  c #4C0000",
"z  c #400000",
"x  c #FCD8D8",
"c  c #FCB8B8",
"v  c #FC9C9C",
"b  c #FC7C7C",
"n  c #FC5C5C",
"m  c #FC4040",
"M  c #FC2020",
"N  c #FC0000",
"B  c #FCA85C",
"V  c #FC9840",
"C  c #FC8820",
"Z  c #FC7800",
"A  c #E46C00",
"S  c #CC6000",
"D  c #B45400",
"F  c #9C4C00",
"G  c #FCFCD8",
"H  c #FCFCB8",
"J  c #FCFC9C",
"K  c #FCFC7C",
"L  c #FCF85C",
"P  c #FCF440",
"I  c #FCF420",
"U  c #FCF400",
"Y  c #E4D800",
"T  c #CCC400",
"R  c #B4AC00",
"E  c #9C9C00",
"W  c #848400",
"Q  c #706C00",
"!  c #585400",
"~  c #404000",
"^  c #D0FC5C",
"/  c #C4FC40",
"(  c #B4FC20",
")  c #A0FC00",
"_  c #90E400",
"`  c #80CC00",
"'  c #74B400",
"]  c #609C00",
"[  c #D8FCD8",
"{  c #BCFCB8",
"}  c #9CFC9C",
"|  c #80FC7C",
" . c #60FC5C",
".. c #40FC40",
"X. c #20FC20",
"o. c #00FC00",
"O. c #00FC00",
"+. c #00EC00",
"@. c #00E000",
"#. c #00D400",
"$. c #04C800",
"%. c #04BC00",
"&. c #04B000",
"*. c #04A400",
"=. c #049800",
"-. c #048800",
";. c #047C00",
":. c #047000",
">. c #046400",
",. c #045800",
"<. c #044C00",
"1. c #044000",
"2. c #D8FCFC",
"3. c #B8FCFC",
"4. c #9CFCFC",
"5. c #7CFCF8",
"6. c #5CFCFC",
"7. c #40FCFC",
"8. c #20FCFC",
"9. c #00FCFC",
"0. c #00E4E4",
"q. c #00CCCC",
"w. c #00B4B4",
"e. c #009C9C",
"r. c #008484",
"t. c #007070",
"y. c #005858",
"u. c #004040",
"i. c #5CBCFC",
"p. c #40B0FC",
"a. c #20A8FC",
"s. c #009CFC",
"d. c #008CE4",
"f. c #007CCC",
"g. c #006CB4",
"h. c #005C9C",
"j. c #D8D8FC",
"k. c #B8BCFC",
"l. c #9C9CFC",
"z. c #7C80FC",
"x. c #5C60FC",
"c. c #4040FC",
"v. c #2024FC",
"b. c #0004FC",
"n. c #0000FC",
"m. c #0000EC",
"M. c #0000E0",
"N. c #0000D4",
"B. c #0000C8",
"V. c #0000BC",
"C. c #0000B0",
"Z. c #0000A4",
"A. c #000098",
"S. c #000088",
"D. c #00007C",
"F. c #000070",
"G. c #000064",
"H. c #000058",
"J. c #00004C",
"K. c #000040",
"L. c #282828",
"P. c #FCE034",
"I. c #FCD424",
"U. c #FCCC18",
"Y. c #FCC008",
"T. c #FCB400",
"R. c #B420FC",
"E. c #A800FC",
"W. c #9800E4",
"Q. c #8000CC",
"!. c #7400B4",
"~. c #60009C",
"^. c #500084",
"/. c #440070",
"(. c #340058",
"). c #280040",
"_. c #FCD8FC",
"`. c #FCB8FC",
"'. c #FC9CFC",
"]. c #FC7CFC",
"[. c #FC5CFC",
"{. c #FC40FC",
"}. c #FC20FC",
"|. c #FC00FC",
" X c #E000E4",
".X c #C800CC",
"XX c #B400B4",
"oX c #9C009C",
"OX c #840084",
"+X c #6C0070",
"@X c #580058",
"#X c #400040",
"$X c #FCE8DC",
"%X c #FCE0D0",
"&X c #FCD8C4",
"*X c #FCD4BC",
"=X c #FCCCB0",
"-X c #FCC4A4",
";X c #FCBC9C",
":X c #FCB890",
">X c #FCB080",
",X c #FCA470",
"<X c #FC9C60",
"1X c #F0945C",
"2X c #E88C58",
"3X c #DC8854",
"4X c #D08050",
"5X c #C87C4C",
"6X c #BC7848",
"7X c #B47044",
"8X c #A86840",
"9X c #A0643C",
"0X c #9C6038",
"qX c #905C34",
"wX c #885830",
"eX c #80502C",
"rX c #744C28",
"tX c #6C4824",
"yX c #5C4020",
"uX c #543C1C",
"iX c #483818",
"pX c #403018",
"aX c #382C14",
"sX c #28200C",
"dX c #600064",
"fX c #006464",
"gX c #006060",
"hX c #00001C",
"jX c #00002C",
"kX c #302410",
"lX c #480048",
"zX c #500050",
"xX c #000034",
"cX c gray11",
"vX c #4C4C4C",
"bX c gray36",
"nX c gray25",
"mX c gray19",
"MX c #343434",
"NX c #D8F4F4",
"BX c #B8E8E8",
"VX c #9CDCDC",
"CX c #74C8C8",
"ZX c #48C0C0",
"AX c #20B4B4",
"SX c #20B0B0",
"DX c #00A4A4",
"FX c #009898",
"GX c #008C8C",
"HX c #008484",
"JX c #007C7C",
"KX c #007878",
"LX c #007474",
"PX c #007070",
"IX c #006C6C",
"UX c #980088",
/* pixels */
"UXUXUXUXUXUXUXUXUXUXUXUXUXUXUXUXUXUXUXUXUXUXUXUX$ nX0 7 7 8 8 8 8 8 8 8 $ $ 0 0 0 UXUXUXUXUXUXUXUXUXUXUXUXUXUXUXUXUXUXUXUXUXUXUX",
"UXUXUXUXUXUXUXUXUXUXUXUXUXUXUXUXUXUXUXUXUXUXUXUX$ 6 # # 6 6 7 7 7 7 7 7 7 $ $ $ $ UXUXUXUXUXUXUXUXUXUXUXUXUXUXUXUXUXUXUXUXUXUXUX",
"UXUXUXUXUXUXUXUXUXUXUXUXUXUXUXUXUXUXUXUXUXUXUX$ 7 $ $ $ $ # : : : : : # $ $ q q $ q UXUXUXUXUXUXUXUXUXUXUXUXUXUXUXUXUXUXUXUXUXUX",
"UXUXUXUXUXUXUXUXUXUXUXUXUXUXUXUXUXUXUXUXUXUXUXq   $           # # #             e q UXUXUXUXUXUXUXUXUXUXUXUXUXUXUXUXUXUXUXUXUXUX",
"UXUXUXUXUXUXUXUXUXUXUXUXUXUXUXUXUXUXUXUXUXUXUXq $ 7 1 1 # # 6 6 6 $ $ $ q q q q   q UXUXUXUXUXUXUXUXUXUXUXUXUXUXUXUXUXUXUXUXUXUX",
"UXUXUXUXUXUXUXUXUXUXUXUXUXUXUXUXUXUXUXUXUXUXUXUXq q $ $ $ $ $ $ $ 0 0 0 q q q q q UXUXUXUXUXUXUXUXUXUXUXUXUXUXUXUXUXUXUXUXUXUXUX",
"UXUXUXUXUXUXUXUXUXUXUXUXUXUXUXUXUXUXUXUXUXUXUXUXUXC ,X7XuXeX5X,X,X,X5XeXuX7X1XC UXUXUXUXUXUXUXUXUXUXUXUXUXUXUXUXUXUXUXUXUXUXUXUX",
"UXUXUXUXUXUXUXUXUXUXUXUXUXUXUXUXUXUXUXUXUXUXUXUXUXC ,X;Xf i = yXwXyX= i f 4X1XC UXUXUXUXUXUXUXUXUXUXUXUXUXUXUXUXUXUXUXUXUXUXUXUX",
"UXUXUXUXUXUXUXUXUXUXUXUXUXUXUXUXUXUXUXUXUXUXUXUX7XV ,X:X>X>X,X,X<X6X2X>X>X>X1XV wXUXUXUXUXUXUXUXUXUXUXUXUXUXUXUXUXUXUXUXUXUXUXUX",
"UXUXUXUXUXUXUXUXUXUXUXUXUXUXUXUXUXUXUXUXUXUXUXUXeXB ,X:X-X-X>X4X4X9X,X;X;X,X1XB tXUXUXUXUXUXUXUXUXUXUXUXUXUXUXUXUXUXUXUXUXUXUXUX",
"UXUXUXUXUXUXUXUXUXUXUXUXUXUXUXUXUXUXUXUXUXUXUXUX7X3X<X2X<X7X1X,X1X,X1X7X1X3X4X7XwXUXUXUXUXUXUXUXUXUXUXUXUXUXUXUXUXUXUXUXUXUXUXUX",
"UXUXUXUXUXUXUXUXUXUXUXUXUXUXUXUXUXUXUXUXUXUXUXUX  3X<X2X<X7X1 < , < 1 7X1X7X4X7X  UXUXUXUXUXUXUXUXUXUXUXUXUXUXUXUXUXUXUXUXUXUXUX",
"UXUXUXUXUXUXUXUXUXUXUXUXUXUXUXUXUXUXUXUXUXUXUX    3X<X2X<X5Xf j j j f 5X1X7X4X7X    UXUXUXUXUXUXUXUXUXUXUXUXUXUXUXUXUXUXUXUXUXUX",
"UXUXUXUXUXUXUXUXUXUXUXUXUXUXUXUXUXUXUXUXUXUXUX      <X,X<X,X1 < , < 1 ,X1X3X7X      UXUXUXUXUXUXUXUXUXUXUXUXUXUXUXUXUXUXUXUXUXUX",
"UXUXUXUXUXUXUXUXUXUXUXUXUXUXUXUXUXUXUXUXUXUX,.      4 3X,X,X,X,X,X,X,X,X1X7XeX      UXUXUXUXUXUXUXUXUXUXUXUXUXUXUXUXUXUXUXUXUXUX",
"UXUXUXUXUXUXUXUXUXUXUXUXUXUXUXUXUXUX2 2 :.:.,.      7 0X7X8X0XqXqXqXeXeXeXtXuX      1.,.,.:.2 2 UXUXUXUXUXUXUXUXUXUXUXUXUXUXUXUX",
"UXUXUXUXUXUXUXUXUXUXUXUXUXUX-.-.-.-.5 5 -.-.:.e     7 0X5X7X7X5X7X7X8XeXeXeXtX      ,.,.:.-.5 5 -.-.-.-.UXUXUXUXUXUXUXUXUXUXUXUX",
"UXUXUXUXUXUXUXUXUXUXUX-.-.=.=.=.=.1 v v 5 -.-.,.    1.  eX8X8X2X4X6X8XeXeXuX<.    ,.,.,.:.1 v v 5 -.-.-.-.-.-.UXUXUXUXUXUXUXUXUX",
"UXUXUXUXUXUXUXUXUX-.-.=.=.=.-.-.-.r n n r -.-.:.,.,.1.      uXeXeXeXuXuX    1.<.,.,.,.:.:.r n n r ;.;.;.-.-.:.>.>.UXUXh UXUXUXUX",
"UXUXUXUXUXUXUXUX-.-.=.=.=.-.h ;.;.;.;.;.;.;.;.;.:.:.>.,.>.:.>.>.,.<.<.<.<.1.>.>.:.:.;.-.-.-.-.-.-.-.-.;.;.;.-.:.:.,.h UXUXUXUXUX",
"UXUXUXUXUXUXUX-.-.=.=.=.-.-.g ;.;.;.;.;.;.;.;.;.;.;.;.;.;.>.,.1.1.1.1.1.1.>.;.;.;.;.=.=.=.=.=.=.=.=.=.-.-.;.;.:.f h f UXUXUXUXUX",
"UXUXUXUXUX*.*.*.*.*.*.*.-.-.f -.-.-.-.-.-.;.;.;.;.;.;.;.;.;.;.<.>.>.-.;.;.-.-.-.=.h *.*.*.*.*.*.*.-.=.=.=.=.=.f h f :.:.1.UXUXUX",
"UXUXUXUXUX:.:.>.,.,.,.1.1.s d h =.=.=.=.=.-.-.;.;.;.;.;.;.;.;.<.>.>.-.;.-.-.-.=.*.*.h f # *.*.q r.t.q q 1.1.f p f         UXUXUX",
"UXUXUXUXUXUX          q q s i f <.*.*.*.*.=.-.-.-.;.;.;.:.:.:.<.>.>.-.-.-.-.=.=.*.*.f h f q q r.e e y.u.f p p f         UXUXUXUX",
"UXUXUXUXUXUXS.S.S.h h h t.i i d y.q h h *.*.=.=.-.-.;.;.:.:.:.<.>.>.-.-.-.=.=.*.*.*.*.f p p d t.u q f f p r p IX$ G.K.K.UXUXUXUX",
"UXUXUXUXUXS.S.S.q h i f t.i Q a u.f i h *.*.*.=.=.=.;.;.:.:.:.<.>.>.-.-.=.=.=.*.*.*.*.d p t p p r f p r r p f e y.u.G.K.K.UXUXUX",
"UXUXUXUXS.S.S.q g t.f p p i Q a p i f h <.g *.=.=.=.=.;.:.:.:.<.>.>.-.=.=.=.=.*.*.*.*.r.p p u r r u r Q r p f u.y.y.G.H.K.UXUXUX",
"UXUXUXUXS.S.S.q t.r.  p Q a Q t u u f   y.#X#X#X#X#X#X#X1.1.1.        #X#X#X#X#X#X#Xq t.d p a W b r W r p f y.u.e y.u.H.K.UXUXUX",
"UXUXUXS.S.S.h f d a u u u t W Q t u a d f h h                                       q e y.f a n Y Y n u u s u.e e y.u.w K.K.UXUX",
"UXUXh g f d s p M M t Q Q W Y W Q Q t Q p a s d f g h e e e e e e e e e e e e e e s q s s u u r Y Y n r r u s s e u.u.w K.K.UXUX",
"UXUXH.H.F.F.h h h f u u t t W Q a p p s d f h nXnXnXnXq q MXMXmXw w nXq q q nXnXnXnXq e r.f a r r n W y f t.u.e e u.w w K.K.UXUX",
"UXUXH.H.F.G.q e u.y.f p p t Q t t p j t.e q q nXq q q q w w w e w w MXw w MXq q q q q r.e a r a a i y y M d y.u.e w w     K.UXUX",
"UXUXH.H.H.H.q e y.f u p p a t a p p f h y.q q q w w w e e e e e w w w e e e w w w w   t.f u a f f f i M M f d u.w w w       UXUX",
"UXUXUXH.H.J.J.e y.f u u f a t a j f u j u.q q q q q q q q q MXMXMXmXmXMXMXq q q q q e q h f u.r.e e d d f p f e w w H.H.    UXUX",
"UXUXUXJ.J.J.F.e h u f f y.d p d y.h j j e w nX0 vX$ $ $ $ vXvX0 0 0 0 vXvX$ $ $ $ 0 mXw e e e t.e q y.u.d d h d w H.H.K.K.  UXUX",
"UXUXUXUXJ.J.F.F.h h h e y.h M f u.e e UXUXe e e e e w nXnX0 0 0 0 0 nXnXq w               e e e y.y.u.e e e f h H.K.K.K.  UXUXUX",
"UXUXUXUXUXJ.F.F.6XyXe e u.y.a h e e UX# 7 7 bXbXq q e e     w MXMXMXMXMX                      e e e e e pXiXK.  h     UXUXUXUXUX",
"UXUXUXUXUXUXF.F.6X6XyXe e e d h UXUX# bXw q q vXbXbXbXbXe e                                   0X0XrXrXrXuXpXK.K.K.UXUXUXUXUXUXUX",
"UXUXUXUXUXUXF.F.wX6X0X0X0XeXf UXUX4 bX# 1 1 1 # vXvXq w bXbXq           w vX7 7 6 6 6 6 6 6 6 0X0XrXrXrXuXK.K.UXUXUXUXUXUXUXUXUX",
"UXUXUXUXUXUXUXF.S.6X0X0X0XeXg UX4 bX# 1 1 1 1 # 4 7 bX$ w w bXq e e   vX8 8 q vXvXvXvXvXvXq q mX0 w e e e e UXUXUXUXUXUXUXUXUXUX",
"UXUXUXUXUXUXUXUXUXUXUXUXUXUXh 4 4 # 1 1 1 1 # # 4 7 bX$ 0 q w q     0 mXmXq 8 7 6 6 6 6 6 7 8 bX0 q UXUXUXUXUXUXUXUXUXUXUXUXUXUX",
"UXUXUXUXUXUXUXUXUXUXUXUXUXUXUX4 # # 1 1 1 1 # # 4 7 bX$ 0 q q q     mXq 0 bX8 7 6 6 6 6 7 7 8 $ 0 q q UXUXUXUXUXUXUXUXUXUXUXUXUX",
"UXUXUXUXUXUXUXUXUXUXUXUXUXUX4 4 # # 1 1 1 # # # 4 8 $ 0 0 $ mXq UXUXq q 0 bX8 7 6 6 6 6 7 7 bX$ 0 q q UXUXUXUXUXUXUXUXUXUXUXUXUX",
"UXUXUXUXUXUXUXUXUXUXUXUXUXUX4 # # 1 1 1 1 # # 4 6 8 $ 0 0 mX0 q UXUXq mXmXbX8 7 7 6 6 7 7 8 bX$ 0 q 0 UXUXUXUXUXUXUXUXUXUXUXUXUX",
"UXUXUXUXUXUXUXUXUXUXUXUXUXUX4 # # 1 1 1 # # # 4 6 bX$ 0 0 q w UXUXUXw q mXbXbX8 7 7 7 7 8 8 bX$ 0 q e q UXUXUXUXUXUXUXUXUXUXUXUX",
"UXUXUXUXUXUXUXUXUXUXUXUXUX4 4 # # 1 1 # # # # 4 bX$ 0 0 w w w UXUXUXUXq q vXbXbX8 8 8 8 bXbXbX$ 0 q w q UXUXUXUXUXUXUXUXUXUXUXUX",
"UXUXUXUXUXUXUXUXUXUXUXUXUX4 4 # # # # # # # 4 6 bX$ 0 q $ mXUXUXUXUXUXw mX0 vXbXbXbXbXbXbXbX$ vX0 q w q q UXUXUXUXUXUXUXUXUXUXUX",
"UXUXUXUXUXUXUXUXUXUXUXUXUXq q q q q q q q q q bX$ 0 0 w mXq UXUXUXUXUXw q q q vXvXbXbXbXbXvXvXvX0 q w q q UXUXUXUXUXUXUXUXUXUXUX",
"UXUXUXUXUXUXUXUXUXUXUXUXq 5 # 1 1 1 # # 5 0 0 q w 0 q w q UXUXUXUXUXUXUX0 w q 0 vXvXvXvXvXvXvX0 q w q e e UXUXUXUXUXUXUXUXUXUXUX",
"UXUXUXUXUXUXUXUXUXUXUX8 5 5 4 # # # 4 4 5 bX0 0 q w w UXUXUXUXUXUXUXUXUX0 # w q q q q q q q q q w q q   e UXUXUXUXUXUXUXUXUXUXUX",
"UXUXUXUXUXUXUXUXUXUXUX8 5 5 4 # # # 4 4 5 bX0 0 q w UXUXUXUXUXUXUXUXUXUXUX0 # w w w w w w w w w q q q   e UXUXUXUXUXUXUXUXUXUXUX",
"UXUXUXUXUXUXUXUXUXUXUX8 5 5 4 4 4 4 4 4 5 bX0 0 q w UXUXUXUXUXUXUXUXUXUXUXUX4 7 7 bX0 0 0 q q q q q     e UXUXUXUXUXUXUXUXUXUXUX",
"UXUXUXUXUXUXUXUXUXUXUXUX                          UXUXUXUXUXUXUXUXUXUXUXUXUXUX# 7 bX0 0 0 q q q         e UXUXUXUXUXUXUXUXUXUXUX",
"UXUXUXUXUXUXUXUXUXUXUXq q q q mXmXw w L.L.L.e e UXUXUXUXUXUXUXUXUXUXUXUXUXUXUXUXnXw e e               e UXUXUXUXUXUXUXUXUXUXUXUX",
"UXUXUXUXUXUXUXUXUXUXUXL.L.L.L.L.L.L.e e         UXUXUXUXUXUXUXUXUXUXUXUXUXUXUXUXUXUXw e               UXUXUXUXUXUXUXUXUXUXUXUXUX",
"UXUXUXUXUXUXUXUXUXUXUXq q q q q w w L.L.L.e e e UXUXUXUXUXUXUXUXUXUXUXUXUXUXUXUXUXUXUXw e e         e UXUXUXUXUXUXUXUXUXUXUXUXUX",
"UXUXUXUXUXUXUXUXUXUXUXq q q q q w w L.L.L.8 0 UXUXUXUXUXUXUXUXUXUXUXUXUXUXUXUXUXUXUXUXw             e UXUXUXUXUXUXUXUXUXUXUXUXUX",
"UXUXUXUXUXUXUXUXUXUXUXUXq q q w w L.L.e e 0 0 UXUXUXUXUXUXUXUXUXUXUXUXUXUXUXUXUXUXUXUXe e e e e e   e e UXUXUXUXUXUXUXUXUXUXUXUX",
"UXUXUXUXUXUXUXUXUXUXUXUXL.L.L.L.L.L.L.e e e UXUXUXUXUXUXUXUXUXUXUXUXUXUXUXUXUXUXUXUXnXnXw w w         e UXUXUXUXUXUXUXUXUXUXUXUX",
"UXUXUXUXUXUXUXUXUXUXUXL.nXnXnXnXnXnXq L.L.UXUXUXUXUXUXUXUXUXUXUXUXUXUXUXUXUXUXUXUXUXw w e e e e e e e e UXUXUXUXUXUXUXUXUXUXUXUX",
"UXUXUXUXUXUXUXUXUXUXvXvXq q q q w w w nXw e UXUXUXUXUXUXUXUXUXUXUXUXUXUXUXUXUXUXUXUXe e e e e e e e e e w w w w q q q q 0 0 8 UX",
"UXUXUXUXUXUXUXUXUXUXvXq vXvXvXvXvXnXnXnXw e UXUXUXUXUXUX8 8 8 8 $ $ $ 0 0 0 0 q q q q q q w w w w w w w w w w w q 0 0 $ $ 8 UXUX",
"UXUXUXUXUXUXUXUXUXUXvXvXq q w w w nXnXw mXe 8 $ 0 0 0 0 q q w w w w w w w w w w w w w w w w w w w w w w w w q q 0 $ $ 8 8 8 UXUX",
"UXUXUXUXUXUXUXUXUXUXvXq vXvXnXnXnXw nXmXw w w w w w q q q q q q q 0 0 0 $ 8 8 UXUXUXUXUXUXUXUXUXUXUXUXUXUXUXUXUXUXUXUXUXUXUXUXUX"
};
